<?xml version="1.0" encoding="UTF-8"?>
<svg xmlns="http://www.w3.org/2000/svg" id="Layer_1" viewBox="0 0 24 23.28" width="24" height="24">
	<defs>
		<style>
			.cls-1{fill:#fac212;stroke-width:0px;}
		</style>
	</defs>
	<g id="_7-Check">
		<path class="cls-1" d="m2.52,10.7c-1.4,0-2.52,1.12-2.52,2.52,0,.56.14,1.12.56,1.54l6.29,7.69c.42.56,1.12.84,1.96.84.7,0,1.4-.42,1.96-1.12L23.91,1.05h0c.14-.14.14-.56-.14-.84-.28-.28-.7-.28-.98,0h0l-13.28,14.96c-.28.28-.56.28-.84,0h0l-4.33-4.05c-.56-.28-1.12-.42-1.82-.42h0Z">
		</path>
	</g>
</svg>
