<?xml version="1.0" encoding="UTF-8"?> <svg xmlns="http://www.w3.org/2000/svg" id="Layer_1" viewBox="0 0 217.56 60"><defs><style>.cls-1{fill:#f9c217;fill-rule:evenodd;}.cls-1,.cls-2,.cls-3{stroke-width:0px;}.cls-3{fill:#35a095;}</style></defs><path class="cls-2" d="m93.87,11.16c-1.87-1.61-4.49-2.42-7.87-2.42h-11.32v26.67h6.02v-7.7h5.3c3.38,0,6-.86,7.87-2.57,1.87-1.71,2.8-4.11,2.8-7.18s-.93-5.19-2.8-6.8Zm-4.29,10.52c-.91.77-2.21,1.16-3.89,1.16h-4.99v-9.26h4.99c1.68,0,2.97.38,3.89,1.14.91.76,1.37,1.9,1.37,3.43s-.46,2.75-1.37,3.52Z"></path><path class="cls-2" d="m106.27,18.64v-3.69h-5.87v20.46h5.87v-9.83c0-1.19.27-2.22.82-3.09.55-.86,1.33-1.52,2.36-1.98,1.03-.46,2.23-.62,3.6-.5v-5.3c-1.68,0-3.14.42-4.38,1.26-.98.66-1.78,1.55-2.4,2.66Z"></path><path class="cls-2" d="m131.26,16.06c-1.65-.86-3.57-1.3-5.75-1.3s-4.11.43-5.77,1.3c-1.66.86-2.95,2.08-3.87,3.64s-1.37,3.39-1.37,5.47.46,3.91,1.37,5.49c.91,1.58,2.2,2.79,3.87,3.66,1.66.86,3.59,1.3,5.77,1.3s4.1-.43,5.75-1.3c1.65-.86,2.93-2.08,3.85-3.66.91-1.57,1.37-3.4,1.37-5.49s-.46-3.91-1.37-5.47-2.2-2.77-3.85-3.64Zm-1.3,12.21c-.43.88-1.03,1.56-1.79,2.06-.76.5-1.65.74-2.67.74s-1.91-.25-2.69-.74c-.78-.5-1.38-1.18-1.81-2.06-.43-.88-.65-1.89-.65-3.03s.22-2.15.65-3.03c.43-.88,1.03-1.56,1.81-2.04.77-.48,1.67-.72,2.69-.72s1.9.24,2.67.72c.76.48,1.36,1.16,1.79,2.04.43.88.65,1.89.65,3.03s-.22,2.15-.65,3.03Z"></path><path class="cls-2" d="m152.69,24.48c-.83-.46-1.7-.83-2.61-1.12-.91-.29-1.78-.55-2.61-.78-.83-.23-1.5-.5-2.02-.82-.52-.32-.78-.74-.78-1.28s.22-.97.67-1.22c.44-.25,1.01-.38,1.7-.38.86,0,1.84.17,2.93.51,1.09.34,2.2.82,3.31,1.43l2.02-3.89c-1.14-.71-2.41-1.26-3.79-1.64-1.38-.38-2.79-.57-4.21-.57s-2.82.23-4.04.69-2.2,1.15-2.93,2.08c-.74.93-1.1,2.1-1.1,3.52,0,1.19.25,2.17.76,2.91.51.75,1.16,1.35,1.96,1.81.8.46,1.66.82,2.57,1.09s1.78.52,2.59.76c.81.24,1.47.53,1.98.88.51.34.76.79.76,1.35,0,.38-.11.7-.34.95-.23.25-.53.44-.91.57-.38.13-.83.19-1.33.19-1.12,0-2.32-.22-3.6-.67-1.28-.44-2.46-1.07-3.52-1.89l-1.9,3.81c1.17.94,2.53,1.65,4.08,2.13,1.55.48,3.15.72,4.8.72,1.55,0,2.96-.23,4.23-.7,1.27-.47,2.27-1.18,3.01-2.13s1.11-2.11,1.11-3.49c0-1.22-.25-2.22-.76-2.99-.51-.77-1.18-1.39-2-1.85Z"></path><path class="cls-2" d="m176.96,16.07c-1.44-.88-3.12-1.31-5.05-1.31-1.75,0-3.26.42-4.51,1.26-.76.51-1.42,1.15-1.96,1.93v-3h-5.87v27.85h5.87v-10.39c.56.79,1.23,1.44,2.02,1.95,1.27.83,2.79,1.24,4.57,1.24,1.93,0,3.61-.43,5.03-1.3,1.42-.86,2.53-2.07,3.31-3.62.79-1.55,1.18-3.35,1.18-5.41s-.41-3.95-1.22-5.52c-.81-1.57-1.94-2.8-3.37-3.68Zm-1.98,12.08c-.42.88-1.01,1.56-1.77,2.04-.76.48-1.65.72-2.67.72s-1.87-.24-2.65-.72c-.78-.48-1.38-1.16-1.81-2.04-.43-.88-.65-1.89-.65-3.03s.22-2.15.65-3.01c.43-.86,1.03-1.54,1.81-2.04.77-.5,1.66-.74,2.65-.74s1.9.25,2.67.74,1.35,1.18,1.77,2.06c.42.88.63,1.87.63,2.99s-.21,2.15-.63,3.03Z"></path><path class="cls-2" d="m188.37,5.92c-.89,0-1.64.3-2.25.91-.61.61-.91,1.37-.91,2.29s.3,1.68.91,2.29c.61.61,1.36.91,2.25.91.94,0,1.71-.3,2.31-.91.6-.61.9-1.37.9-2.29s-.3-1.68-.9-2.29c-.6-.61-1.37-.91-2.31-.91Z"></path><rect class="cls-2" x="185.44" y="14.95" width="5.87" height="20.46"></rect><rect class="cls-2" x="211.42" y="14.95" width="5.87" height="20.46"></rect><path class="cls-2" d="m205.59,6.87c-1.37,0-2.63.26-3.77.78-1.14.52-2.06,1.3-2.74,2.34-.69,1.04-1.03,2.34-1.03,3.89v1.94h-2.74v3.92h2.74v15.66h5.83v-15.66h4.84v-3.92h-4.84v-1.83c0-.56.11-1.02.32-1.39.22-.37.51-.63.9-.8.38-.16.79-.25,1.22-.25.41,0,.82.06,1.24.17.42.11.82.25,1.2.4l.88-4.42c-.61-.25-1.26-.46-1.96-.61-.7-.15-1.39-.23-2.08-.23Z"></path><path class="cls-2" d="m214.36,12.32c.94,0,1.71-.3,2.31-.91.6-.61.9-1.37.9-2.29s-.3-1.68-.9-2.29c-.6-.61-1.37-.91-2.31-.91-.89,0-1.64.3-2.25.91-.61.61-.91,1.37-.91,2.29s.3,1.68.91,2.29c.61.61,1.36.91,2.25.91Z"></path><path class="cls-3" d="m36.47,0c-7,0-12.67,5.67-12.67,12.67v29.78h5.43v-8.24h0v-15.57h0v-5.97c0-4,3.24-7.24,7.24-7.24h18.1v9.05c0,4-3.24,7.24-7.24,7.24h-13.58v5.43h13.58c6.99,0,12.67-5.67,12.67-12.67V0h-23.53Z"></path><path class="cls-1" d="m51.32,42.03c1.02-1.02,1.28-2.61.54-3.84-1.07-1.79-3.43-2.05-4.86-.71l-10.31,9.69c.52,2.24-.87,4.48-3.11,5-.31.07-.63.11-.95.11h-10.08c-.51,0-.92-.47-.8-1.01.08-.32.36-.57.69-.61.04,0,.07,0,.11,0h10.08c1.41-.01,2.54-1.16,2.53-2.57-.01-1.39-1.14-2.52-2.53-2.53h-13.16c-.14,0-.28-.04-.4-.11-6.25-3.55-14.11-2.39-19.07,2.82l11.18,11.18c.73.73,1.92.73,2.65,0h0c.51-.52,1.21-.81,1.94-.8h20.16c1.12.02,2.18-.48,2.87-1.36l12.44-15.18s.04-.05.07-.07h0Z"></path></svg> 