<?xml version="1.0" encoding="UTF-8"?>
<svg xmlns="http://www.w3.org/2000/svg" id="Layer_2" viewBox="0 0 135.47 135.47">
	<defs>
		<style>
			.cls-1{fill:#fac213;}
		</style>
	</defs>
	<circle class="cls-1" cx="67.73" cy="67.73" r="67.73">
	</circle>
	<path d="m42.04,76.55c-1.8,4.54-4.65,9.02-8.45,13.34-1.2,1.37-1.37,3.33-.38,4.87.77,1.2,2.02,1.86,3.39,1.86.38,0,.77-.03,1.15-.16,8.04-2.35,26.81-10.69,27.33-37.42.19-10.3-7.35-19.16-17.17-20.17-5.44-.55-10.85,1.23-14.87,4.84-4.02,3.64-6.31,8.83-6.31,14.24,0,9.02,6.4,16.92,15.31,18.61h0Z">
	</path>
	<path d="m91.54,38.86c-5.41-.55-10.82,1.23-14.84,4.84-4.02,3.64-6.31,8.83-6.31,14.24,0,9.02,6.4,16.92,15.31,18.61-1.8,4.54-4.65,9.02-8.45,13.34-1.2,1.37-1.37,3.33-.38,4.87.77,1.2,2.02,1.86,3.39,1.86.38,0,.77-.03,1.15-.16,8.04-2.35,26.81-10.69,27.33-37.42v-.38c0-10.14-7.46-18.78-17.19-19.79h0Z">
	</path>
</svg>
